Coordinates
version=1
nRows=26
nColumns=22
inDegrees=yes

Units are S.I. units (second, meters, Newtons, ...)
If the header above contains a line with 'inDegrees', this indicates whether rotational values are in degrees (yes) or radians (no).

endheader
time	pelvis_tilt	pelvis_list	pelvis_rotation	pelvis_tx	pelvis_ty	pelvis_tz	hip_flexion_r	hip_adduction_r	hip_rotation_r	knee_angle_r	ankle_angle_r	subtalar_angle_r	hip_flexion_l	hip_adduction_l	hip_rotation_l	knee_angle_l	ankle_angle_l	subtalar_angle_l	lumbar_extension	lumbar_bending	lumbar_rotation
      5.21000000	      1.55875947	      0.91928832	    -33.68102825	      0.56075037	      0.89434862	      0.29957364	     -5.44322518	     -4.63801151	      5.30629328	    -38.43627757	      6.72944526	      2.26148185	     17.10310470	     -0.67893999	    -12.61257656	    -24.09065139	      7.98144422	     -4.88535889	     -5.86680500	     -3.20126468	      7.80767098
      5.22000000	      1.46932855	      0.82820186	    -33.76880865	      0.56564983	      0.89470615	      0.30000190	     -4.58198489	     -4.57458462	      5.72375876	    -40.07732412	      5.86322739	      2.60327252	     16.87159983	     -0.65430920	    -12.62783934	    -24.18800628	      8.24702706	     -4.94009965	     -5.88175884	     -3.04019700	      7.83422057
      5.23000000	      1.40326136	      0.73716610	    -33.87233459	      0.57039682	      0.89506284	      0.30046887	     -3.69877918	     -4.51906033	      6.11315981	    -41.73809805	      5.07540934	      2.81000692	     16.61709971	     -0.63265913	    -12.69908927	    -24.27638045	      8.50470961	     -4.96309533	     -5.92524052	     -2.89996021	      7.84815344
      5.24000000	      1.33872182	      0.65015870	    -33.94854723	      0.57501948	      0.89537547	      0.30088214	     -2.78526689	     -4.47051940	      6.41363016	    -43.39606356	      4.40333105	      3.01514747	     16.37477905	     -0.59666046	    -12.71759273	    -24.36344090	      8.76594964	     -4.98430483	     -5.98123376	     -2.76721459	      7.82573773
      5.25000000	      1.30525176	      0.56269166	    -34.00790570	      0.57953408	      0.89569501	      0.30124230	     -1.88380356	     -4.45268008	      6.62989169	    -45.01373497	      3.89241086	      3.12966482	     16.10393877	     -0.53732808	    -12.73010838	    -24.43161948	      9.02051987	     -5.00643515	     -6.08174046	     -2.65080233	      7.78130398
      5.26000000	      1.30341403	      0.47727264	    -34.05577127	      0.58394892	      0.89602160	      0.30158897	     -1.00397086	     -4.47498080	      6.75676951	    -46.56056785	      3.58742237	      3.11337549	     15.80308871	     -0.45597871	    -12.74320454	    -24.48278345	      9.26779248	     -5.03960842	     -6.21773902	     -2.55897120	      7.70521074
      5.27000000	      1.35970495	      0.36584114	    -34.07138748	      0.58833079	      0.89643360	      0.30189730	     -0.21255371	     -4.54617357	      6.74680997	    -47.97927858	      3.44703656	      2.98950965	     15.41677441	     -0.34867689	    -12.72744244	    -24.48987376	      9.54629136	     -5.05877417	     -6.43095985	     -2.47440927	      7.59223433
      5.28000000	      1.36469739	      0.33684485	    -34.09579124	      0.59252502	      0.89666556	      0.30217455	      0.69689117	     -4.66840031	      6.72359374	    -49.32682665	      3.70468603	      2.54646843	     15.14713888	     -0.20758062	    -12.74516319	    -24.51133462	      9.72297887	     -5.21207991	     -6.55111397	     -2.43994396	      7.47611152
      5.29000000	      1.43885507	      0.26883679	    -34.07442106	      0.59672025	      0.89703129	      0.30241942	      1.47369199	     -4.84434309	      6.54961161	    -50.48270573	      4.13236698	      1.82360649	     14.76533060	     -0.03537029	    -12.68612052	    -24.47186579	      9.94674548	     -5.40137400	     -6.76232273	     -2.40716031	      7.30670990
      5.30000000	      1.53717916	      0.15790531	    -34.01943323	      0.60086063	      0.89747169	      0.30264825	      2.16088084	     -5.03433322	      6.25773328	    -51.44091858	      4.73972201	      0.84656063	     14.34656917	      0.10840881	    -12.64397778	    -24.44537030	     10.20059472	     -5.62365710	     -7.02781260	     -2.34432650	      7.12392874
      5.31000000	      1.64489605	      0.08788471	    -33.95205189	      0.60490964	      0.89791970	      0.30285472	      2.84179266	     -5.27885287	      5.94903053	    -52.23551902	      5.48165531	     -0.00518923	     13.90859578	      0.31883157	    -12.51010915	    -24.33057437	     10.41134805	     -5.80504461	     -7.27576979	     -2.32523303	      6.90164090
      5.32000000	      1.73048135	     -0.06224361	    -33.86838964	      0.60883898	      0.89843931	      0.30311317	      3.43652837	     -5.44075964	      5.59581677	    -52.79715885	      6.37074283	     -1.19238370	     13.47078473	      0.41837102	    -12.42155029	    -24.26622494	     10.62667840	     -6.06903748	     -7.55585128	     -2.21860503	      6.70668416
      5.33000000	      1.80673094	     -0.19241645	    -33.77952991	      0.61266131	      0.89897091	      0.30337229	      4.02408158	     -5.61547095	      5.23729653	    -53.17971388	      7.25344064	     -2.22314343	     13.03120542	      0.54209820	    -12.27145054	    -24.14372703	     10.81747695	     -6.29068536	     -7.81474883	     -2.12266031	      6.49506592
      5.34000000	      1.86839928	     -0.33056222	    -33.67724184	      0.61636653	      0.89952244	      0.30364070	      4.58198897	     -5.76872431	      4.86260510	    -53.37065924	      8.11335979	     -3.19557787	     12.60452255	      0.64363006	    -12.11014108	    -24.01671687	     10.99933610	     -6.50519822	     -8.06895410	     -2.01075666	      6.28597935
      5.35000000	      1.90348706	     -0.48242750	    -33.58201632	      0.61994269	      0.90008525	      0.30395702	      5.11777455	     -5.87524598	      4.50599725	    -53.37125698	      8.94390798	     -4.08836238	     12.19399711	      0.70275325	    -11.96671338	    -23.88252212	     11.18504740	     -6.70461863	     -8.30434953	     -1.87001127	      6.08876420
      5.36000000	      1.92943539	     -0.62272081	    -33.46451232	      0.62345730	      0.90063870	      0.30427014	      5.62761459	     -5.99016783	      4.10200946	    -53.19503397	      9.69841379	     -4.68936164	     11.79841564	      0.76572971	    -11.80347009	    -23.73860316	     11.39534181	     -6.84059151	     -8.52014364	     -1.73251207	      5.86930557
      5.37000000	      1.91959061	     -0.80065850	    -33.39667369	      0.62676069	      0.90122341	      0.30469089	      6.11394865	     -5.98793473	      3.81661500	    -52.83502688	     10.46249676	     -5.48167189	     11.41439715	      0.74905344	    -11.67867391	    -23.59238087	     11.52937829	     -7.04123539	     -8.73226912	     -1.54673647	      5.74140922
      5.38000000	      1.90178063	     -0.95860075	    -33.32055260	      0.63000131	      0.90177564	      0.30512908	      6.58234549	     -5.99636061	      3.49951251	    -52.32139833	     11.16420497	     -6.01378248	     11.05138574	      0.73638949	    -11.57545695	    -23.44387887	     11.67572590	     -7.17377754	     -8.91815233	     -1.37325179	      5.59805818
      5.39000000	      1.87936035	     -1.10947854	    -33.25211374	      0.63315781	      0.90231226	      0.30561026	      7.02377638	     -5.99153460	      3.18688681	    -51.66181041	     11.83531205	     -6.46809986	     10.69274448	      0.71625596	    -11.49455269	    -23.28523982	     11.81879601	     -7.29153669	     -9.09214131	     -1.20484752	      5.46876514
      5.40000000	      1.85498091	     -1.24359126	    -33.17635563	      0.63626095	      0.90280727	      0.30610905	      7.44221749	     -5.99666601	      2.84249628	    -50.87579532	     12.47027530	     -6.75037260	     10.34707791	      0.70052595	    -11.43934530	    -23.12516356	     11.98308838	     -7.36397745	     -9.24933270	     -1.04776535	      5.32476180
      5.41000000	      1.83562444	     -1.37138756	    -33.10431161	      0.63930029	      0.90329667	      0.30664634	      7.81673768	     -5.99372707	      2.49839443	    -49.95449042	     13.08949721	     -7.07524074	      9.99413715	      0.68669920	    -11.39621054	    -22.94930848	     12.11212055	     -7.44942789	     -9.40323826	     -0.89931378	      5.19361767
      5.42000000	      1.81816750	     -1.48819402	    -33.03444010	      0.64228052	      0.90375403	      0.30721702	      8.16117445	     -5.99082103	      2.14237091	    -48.92431608	     13.68978737	     -7.40327587	      9.64203339	      0.67827282	    -11.35579575	    -22.76298315	     12.22110388	     -7.53226899	     -9.54685897	     -0.76308020	      5.08052190
      5.43000000	      1.80135804	     -1.58947972	    -32.96983175	      0.64519968	      0.90416554	      0.30783190	      8.48237769	     -5.98982135	      1.78019800	    -47.80188718	     14.26963239	     -7.70606260	      9.29907005	      0.67397816	    -11.34122000	    -22.57441864	     12.30758112	     -7.60965947	     -9.67608865	     -0.64183050	      4.97965066
      5.44000000	      1.78124065	     -1.67036152	    -32.87629785	      0.64809469	      0.90450622	      0.30844041	      8.78176994	     -6.00315588	      1.36795155	    -46.60134902	     14.79470678	     -7.81040658	      8.98446063	      0.68058963	    -11.32822527	    -22.40231777	     12.44130291	     -7.64198118	     -9.78522228	     -0.52975561	      4.82555919
      5.45000000	      1.77275296	     -1.75658858	    -32.78204985	      0.65093469	      0.90484290	      0.30910914	      9.02625992	     -6.00339462	      0.94372991	    -45.31526183	     15.28181342	     -7.90025474	      8.65945467	      0.68214171	    -11.30499485	    -22.23328839	     12.54453335	     -7.68256740	     -9.90256453	     -0.42260350	      4.69385169
      5.46000000	      1.76201230	     -1.83896561	    -32.67640061	      0.65371079	      0.90514047	      0.30982822	      9.23596125	     -5.98540448	      0.51709555	    -43.96010915	     15.71806685	     -7.92260876	      8.35297537	      0.67646368	    -11.27095306	    -22.08503940	     12.66087682	     -7.71072940	    -10.00955603	     -0.31865469	      4.54259851
